# xmcd
#
# Track frame offsets: 
#        150
#        17422
#        32806
#        52176
#        71141
#        91270
#        107208
#        127729
#        145735
#        166087
#        190605
#        211181
#        229296
#        251979
#
# Disc length: 3641 seconds
#
# Revision: 1
# Processed by: cddbd v1.5.2PL0 Copyright (c) Steve Scherf et al.
# Submitted via: ExactAudioCopyFreeDBPlugin 1.0
#
DISCID=be0e370e
DTITLE=溝口肇 - Seasons
DYEAR=2009
DGENRE=New Age
TTITLE0=Season's Greetings
TTITLE1=April Dancer
TTITLE2=Summer Of 1987
TTITLE3=Rainy Day Lovers
TTITLE4=Snow Beat
TTITLE5=Spring Rose
TTITLE6=Echo Beach
TTITLE7=July Morning
TTITLE8=SAKURA Days ～ こころのふるさと
TTITLE9=May Storm
TTITLE10=A Happy New Year
TTITLE11=Kitty In The Rain
TTITLE12=Autumn Cafe
TTITLE13=Christmas Waltz
EXTD=YEAR: 2009
EXTT0=
EXTT1=
EXTT2=
EXTT3=
EXTT4=
EXTT5=
EXTT6=
EXTT7=
EXTT8=
EXTT9=
EXTT10=
EXTT11=
EXTT12=
EXTT13=
PLAYORDER=
